<mxfile host="65bd71144e">
    <diagram id="StPKS6a9uWxOC8KM271T" name="Page-1">
        <mxGraphModel dx="1072" dy="4098" grid="1" gridSize="10" guides="1" tooltips="1" connect="1" arrows="1" fold="1" page="1" pageScale="1" pageWidth="827" pageHeight="1169" background="none" math="0" shadow="0">
            <root>
                <mxCell id="0"/>
                <mxCell id="1" parent="0"/>
                <mxCell id="96" value="" style="rounded=0;whiteSpace=wrap;html=1;fontColor=#FFFFFF;strokeColor=#0d1117;fillColor=#0d1117;" parent="1" vertex="1">
                    <mxGeometry y="-3507" width="480" height="987" as="geometry"/>
                </mxCell>
                <mxCell id="97" value="" style="group" parent="1" vertex="1" connectable="0">
                    <mxGeometry x="21" y="-3031" width="440" height="490" as="geometry"/>
                </mxCell>
                <mxCell id="41" value="&lt;font style=&quot;font-size: 18px;&quot;&gt;&lt;br&gt;&lt;br&gt;&lt;br&gt;&lt;br&gt;&lt;br&gt;&lt;br&gt;&lt;br&gt;&lt;br&gt;&lt;br&gt;&lt;br&gt;&lt;br&gt;&lt;br&gt;&lt;br&gt;&lt;br&gt;&lt;br&gt;Interfaces&lt;br&gt;&lt;/font&gt;" style="ellipse;html=1;strokeWidth=4;fillColor=#10739E;strokeColor=#ffffff;shadow=0;fontSize=10;fontColor=#FFFFFF;align=center;fontStyle=0;whiteSpace=wrap;spacing=10;" parent="97" vertex="1">
                    <mxGeometry x="25.281118715869187" y="103.947415811273" width="391.0234748018075" height="386.05258418872705" as="geometry"/>
                </mxCell>
                <mxCell id="42" value="&lt;font style=&quot;font-size: 16px;&quot;&gt;&lt;br&gt;&lt;br&gt;&lt;br&gt;&lt;br&gt;&lt;br&gt;&lt;br&gt;&lt;br&gt;&lt;br&gt;&lt;br&gt;&lt;br&gt;&lt;br&gt;Use Cases&lt;/font&gt;" style="ellipse;html=1;strokeWidth=4;fillColor=#F2931E;strokeColor=#ffffff;shadow=0;fontSize=10;fontColor=#FFFFFF;align=center;fontStyle=0;whiteSpace=wrap;spacing=10;" parent="97" vertex="1">
                    <mxGeometry x="81.14161511612738" y="159.09778498109114" width="279.302482001291" height="275.7518458490908" as="geometry"/>
                </mxCell>
                <mxCell id="43" value="&lt;blockquote style=&quot;margin: 0px 0px 0px 40px; border: none; padding: 0px; font-size: 14px;&quot;&gt;&lt;font style=&quot;font-size: 14px;&quot;&gt;&lt;br&gt;&lt;/font&gt;&lt;/blockquote&gt;&lt;blockquote style=&quot;margin: 0px 0px 0px 40px; border: none; padding: 0px; font-size: 14px;&quot;&gt;&lt;br&gt;&lt;/blockquote&gt;&lt;blockquote style=&quot;margin: 0px 0px 0px 40px; border: none; padding: 0px; font-size: 14px;&quot;&gt;&lt;font style=&quot;font-size: 14px;&quot;&gt;&lt;br&gt;&lt;/font&gt;&lt;/blockquote&gt;&lt;blockquote style=&quot;margin: 0px 0px 0px 40px; border: none; padding: 0px; font-size: 14px;&quot;&gt;&lt;font style=&quot;font-size: 14px;&quot;&gt;&lt;br&gt;&lt;/font&gt;&lt;/blockquote&gt;&lt;blockquote style=&quot;margin: 0px 0px 0px 40px; border: none; padding: 0px; font-size: 14px;&quot;&gt;&lt;font style=&quot;font-size: 14px;&quot;&gt;&lt;br&gt;&lt;/font&gt;&lt;/blockquote&gt;&lt;blockquote style=&quot;margin: 0px 0px 0px 40px; border: none; padding: 0px; font-size: 14px;&quot;&gt;&lt;font style=&quot;font-size: 14px;&quot;&gt;&lt;br&gt;&lt;/font&gt;&lt;/blockquote&gt;&lt;font style=&quot;font-size: 14px;&quot;&gt;Domain Rules&lt;/font&gt;" style="ellipse;html=1;strokeWidth=4;fillColor=#AE4132;strokeColor=#ffffff;shadow=0;fontSize=10;fontColor=#FFFFFF;align=center;fontStyle=0;whiteSpace=wrap;spacing=10;" parent="97" vertex="1">
                    <mxGeometry x="137.0021115163856" y="214.24815415090933" width="167.58148920077463" height="165.45110750945443" as="geometry"/>
                </mxCell>
                <mxCell id="44" value="&lt;font style=&quot;font-size: 14px;&quot;&gt;Models&lt;/font&gt;" style="ellipse;html=1;strokeWidth=4;fillColor=#6D8764;strokeColor=#ffffff;shadow=0;fontSize=10;fontColor=#FFFFFF;align=center;fontStyle=0;whiteSpace=wrap;spacing=10;" parent="97" vertex="1">
                    <mxGeometry x="192.8626079166438" y="269.3985233207274" width="55.86049640025821" height="55.15036916981814" as="geometry"/>
                </mxCell>
                <mxCell id="58" value="&lt;font style=&quot;font-size: 16px;&quot;&gt;Software architecture: Simple Domain Model&lt;/font&gt;" style="html=1;shape=mxgraph.infographic.barCallout;dx=182.8;dy=35.35;fillColor=#647687;strokeColor=#314354;align=center;verticalAlign=top;fontSize=14;fontStyle=1;shadow=0;spacingTop=5;fontColor=#ffffff;" parent="97" vertex="1">
                    <mxGeometry x="47.63" width="362.37" height="77.21" as="geometry"/>
                </mxCell>
                <mxCell id="71" value="" style="verticalLabelPosition=bottom;verticalAlign=top;html=1;shape=mxgraph.basic.rect;fillColor2=none;strokeWidth=1;size=0;indent=0;fontSize=16;gradientColor=none;fillColor=#10739E;rotation=45;strokeColor=none;" parent="97" vertex="1">
                    <mxGeometry x="338.0998985573151" y="127.76134521880066" width="22.344198560103283" height="44.12029533585452" as="geometry"/>
                </mxCell>
                <mxCell id="72" value="" style="verticalLabelPosition=bottom;verticalAlign=top;html=1;shape=mxgraph.basic.rect;fillColor2=none;strokeWidth=1;size=0;indent=0;fontSize=16;gradientColor=none;fillColor=#10739E;rotation=-45;strokeColor=none;" parent="97" vertex="1">
                    <mxGeometry x="81.14161511612738" y="131.5226003961821" width="22.344198560103283" height="44.12029533585452" as="geometry"/>
                </mxCell>
                <mxCell id="74" value="&lt;font style=&quot;font-size: 14px;&quot; color=&quot;#ffffff&quot;&gt;HTTP server&lt;/font&gt;" style="verticalLabelPosition=middle;verticalAlign=middle;html=1;shape=trapezoid;perimeter=trapezoidPerimeter;whiteSpace=wrap;size=0;arcSize=10;flipV=1;labelPosition=center;align=center;fontSize=16;fillColor=#AE4132;strokeColor=none;rotation=-45;" parent="97" vertex="1">
                    <mxGeometry x="-2.3251386051383967" y="93.17103367549056" width="86.97479289520201" height="29.075274626328127" as="geometry"/>
                </mxCell>
                <mxCell id="75" value="&lt;font style=&quot;font-size: 16px;&quot;&gt;adapter&lt;/font&gt;" style="verticalLabelPosition=middle;verticalAlign=middle;html=1;shape=trapezoid;perimeter=trapezoidPerimeter;whiteSpace=wrap;size=0.23;arcSize=10;flipV=1;labelPosition=center;align=center;fontSize=16;fillColor=#6d8764;strokeColor=none;rotation=-45;fontColor=#ffffff;" parent="97" vertex="1">
                    <mxGeometry x="20.488288124727006" y="114.65761750405173" width="84.90795452839248" height="28.678191968305438" as="geometry"/>
                </mxCell>
                <mxCell id="76" value="&lt;font style=&quot;font-size: 16px;&quot; color=&quot;#ffffff&quot;&gt;database&lt;/font&gt;" style="verticalLabelPosition=middle;verticalAlign=middle;html=1;shape=trapezoid;perimeter=trapezoidPerimeter;whiteSpace=wrap;size=0;arcSize=10;flipV=1;labelPosition=center;align=center;fontSize=16;fillColor=#AE4132;strokeColor=none;rotation=45;" parent="97" vertex="1">
                    <mxGeometry x="355.97525740539777" y="88.24059067170904" width="86.02516445639765" height="29.593688096524417" as="geometry"/>
                </mxCell>
                <mxCell id="86" value="&lt;font style=&quot;font-size: 14px;&quot; color=&quot;#ffffff&quot;&gt;Port Repository&lt;/font&gt;" style="text;html=1;strokeColor=none;fillColor=none;align=center;verticalAlign=middle;whiteSpace=wrap;rounded=0;fontSize=10;fontColor=#000000;" parent="97" vertex="1">
                    <mxGeometry x="288.94266172508793" y="145.86169638033482" width="67.03259568030984" height="33.090221501890895" as="geometry"/>
                </mxCell>
                <mxCell id="87" value="&lt;font style=&quot;font-size: 14px;&quot; color=&quot;#ffffff&quot;&gt;Port&lt;br&gt;Transport&lt;/font&gt;" style="text;html=1;strokeColor=none;fillColor=none;align=center;verticalAlign=middle;whiteSpace=wrap;rounded=0;fontSize=10;fontColor=#000000;" parent="97" vertex="1">
                    <mxGeometry x="78.90719526011706" y="146.96470376373117" width="67.03259568030984" height="33.090221501890895" as="geometry"/>
                </mxCell>
                <mxCell id="90" value="&lt;font style=&quot;font-size: 16px;&quot;&gt;adapter&lt;/font&gt;" style="verticalLabelPosition=middle;verticalAlign=middle;html=1;shape=trapezoid;perimeter=trapezoidPerimeter;whiteSpace=wrap;size=0.23;arcSize=10;flipV=1;labelPosition=center;align=center;fontSize=16;fillColor=#6d8764;strokeColor=none;rotation=45;fontColor=#ffffff;" parent="97" vertex="1">
                    <mxGeometry x="334.7482687732996" y="110.56546011165118" width="84.90795452839248" height="28.678191968305438" as="geometry"/>
                </mxCell>
                <mxCell id="98" value="z" style="group" parent="97" vertex="1" connectable="0">
                    <mxGeometry x="40.28" y="-449" width="370" height="460" as="geometry"/>
                </mxCell>
                <mxCell id="46" value="Interface Layer" style="shape=mxgraph.infographic.ribbonSimple;notch1=0;notch2=0;notch=0;html=1;fillColor=#10739E;strokeColor=none;shadow=0;fontSize=17;fontColor=#FFFFFF;align=left;spacingLeft=10;fontStyle=1;" parent="98" vertex="1">
                    <mxGeometry y="90" width="370" height="70" as="geometry"/>
                </mxCell>
                <mxCell id="48" value="Domain Layer" style="shape=mxgraph.infographic.ribbonSimple;notch1=0;notch2=0;notch=0;html=1;fillColor=#F2931E;strokeColor=none;shadow=0;fontSize=17;fontColor=#FFFFFF;align=left;spacingLeft=10;fontStyle=1;" parent="98" vertex="1">
                    <mxGeometry y="160" width="370" height="70" as="geometry"/>
                </mxCell>
                <mxCell id="50" value="Data Layer" style="shape=mxgraph.infographic.ribbonSimple;notch1=0;notch2=0;notch=0;html=1;fillColor=#AE4132;strokeColor=none;shadow=0;fontSize=17;fontColor=#FFFFFF;align=left;spacingLeft=10;fontStyle=1;fixDash=0;autosize=0;gradientColor=none;" parent="98" vertex="1">
                    <mxGeometry y="270" width="370" height="80" as="geometry"/>
                </mxCell>
                <mxCell id="57" value="&lt;font style=&quot;font-size: 16px;&quot;&gt;System architecture: Monolith&lt;/font&gt;" style="html=1;shape=mxgraph.infographic.barCallout;dx=145.07;dy=41.5;fillColor=#647687;strokeColor=#314354;align=center;verticalAlign=top;fontColor=#ffffff;fontSize=14;fontStyle=1;shadow=0;spacingTop=5;" parent="98" vertex="1">
                    <mxGeometry x="39.64285714285714" width="290.7142857142857" height="80.5" as="geometry"/>
                </mxCell>
                <mxCell id="59" value="" style="verticalLabelPosition=middle;verticalAlign=middle;html=1;shape=mxgraph.infographic.circularCallout2;dy=15;strokeColor=#10739E;labelPosition=center;align=center;fontColor=#10739E;fontStyle=1;fontSize=24;gradientColor=none;fillColor=#10739E;" parent="98" vertex="1">
                    <mxGeometry x="171.78571428571428" y="200" width="26.428571428571427" height="103.49999999999999" as="geometry"/>
                </mxCell>
                <mxCell id="60" value="sevrer" style="verticalLabelPosition=middle;verticalAlign=top;html=1;shape=mxgraph.infographic.numberedEntryVert;dy=25.82;fillColor=#6D8764;strokeColor=#6D8764;fontSize=17;fontColor=#FFFFFF;align=center;labelPosition=center;spacingTop=32;fontStyle=1;" parent="98" vertex="1">
                    <mxGeometry x="240" y="120" width="105.71" height="80" as="geometry"/>
                </mxCell>
                <mxCell id="61" value="database" style="verticalLabelPosition=middle;verticalAlign=top;html=1;shape=mxgraph.infographic.numberedEntryVert;dy=25.24;fillColor=#6D8764;strokeColor=none;fontSize=17;fontColor=#FFFFFF;align=center;labelPosition=center;spacingTop=32;fontStyle=1;" parent="98" vertex="1">
                    <mxGeometry x="240" y="277.62" width="105.71" height="64.75" as="geometry"/>
                </mxCell>
            </root>
        </mxGraphModel>
    </diagram>
</mxfile>